<mxfile host="app.diagrams.net" agent="Mozilla/5.0 (Windows NT 10.0; Win64; x64) AppleWebKit/537.36 (KHTML, like Gecko) Chrome/138.0.0.0 Safari/537.36" version="28.0.4">
  <diagram name="Page-1" id="usXtvuQJJngtWBmvEobO">
    <mxGraphModel dx="2090" dy="653" grid="1" gridSize="10" guides="1" tooltips="1" connect="1" arrows="1" fold="1" page="1" pageScale="1" pageWidth="850" pageHeight="1100" math="0" shadow="0">
      <root>
        <mxCell id="0" />
        <mxCell id="1" parent="0" />
        <mxCell id="EEYwtt-snNPS_JnEbcf8-4" style="edgeStyle=orthogonalEdgeStyle;rounded=0;orthogonalLoop=1;jettySize=auto;html=1;entryX=0.5;entryY=0;entryDx=0;entryDy=0;" parent="1" source="EEYwtt-snNPS_JnEbcf8-1" target="EEYwtt-snNPS_JnEbcf8-2" edge="1">
          <mxGeometry relative="1" as="geometry" />
        </mxCell>
        <mxCell id="EEYwtt-snNPS_JnEbcf8-5" style="edgeStyle=orthogonalEdgeStyle;rounded=0;orthogonalLoop=1;jettySize=auto;html=1;" parent="1" source="EEYwtt-snNPS_JnEbcf8-1" target="EEYwtt-snNPS_JnEbcf8-3" edge="1">
          <mxGeometry relative="1" as="geometry" />
        </mxCell>
        <mxCell id="EEYwtt-snNPS_JnEbcf8-1" value="Real LTTng Logs" style="rounded=1;whiteSpace=wrap;html=1;fillColor=#647687;fontColor=#ffffff;strokeColor=#314354;" parent="1" vertex="1">
          <mxGeometry x="365" y="100" width="120" height="40" as="geometry" />
        </mxCell>
        <mxCell id="EEYwtt-snNPS_JnEbcf8-9" style="rounded=0;orthogonalLoop=1;jettySize=auto;html=1;entryX=0.5;entryY=0;entryDx=0;entryDy=0;" parent="1" source="EEYwtt-snNPS_JnEbcf8-2" target="EEYwtt-snNPS_JnEbcf8-6" edge="1">
          <mxGeometry relative="1" as="geometry" />
        </mxCell>
        <mxCell id="EEYwtt-snNPS_JnEbcf8-11" style="rounded=0;orthogonalLoop=1;jettySize=auto;html=1;" parent="1" source="EEYwtt-snNPS_JnEbcf8-2" target="EEYwtt-snNPS_JnEbcf8-8" edge="1">
          <mxGeometry relative="1" as="geometry" />
        </mxCell>
        <mxCell id="EEYwtt-snNPS_JnEbcf8-2" value="Preprocessing &amp;amp; Schema Extraction" style="rounded=0;whiteSpace=wrap;html=1;fillColor=#dae8fc;strokeColor=#6c8ebf;" parent="1" vertex="1">
          <mxGeometry x="220" y="190" width="195" height="40" as="geometry" />
        </mxCell>
        <mxCell id="EEYwtt-snNPS_JnEbcf8-15" style="rounded=0;orthogonalLoop=1;jettySize=auto;html=1;entryX=0.5;entryY=0;entryDx=0;entryDy=0;" parent="1" source="EEYwtt-snNPS_JnEbcf8-3" target="EEYwtt-snNPS_JnEbcf8-12" edge="1">
          <mxGeometry relative="1" as="geometry" />
        </mxCell>
        <mxCell id="EEYwtt-snNPS_JnEbcf8-16" style="rounded=0;orthogonalLoop=1;jettySize=auto;html=1;entryX=0.5;entryY=0;entryDx=0;entryDy=0;" parent="1" source="EEYwtt-snNPS_JnEbcf8-3" target="EEYwtt-snNPS_JnEbcf8-13" edge="1">
          <mxGeometry relative="1" as="geometry" />
        </mxCell>
        <mxCell id="EEYwtt-snNPS_JnEbcf8-17" style="rounded=0;orthogonalLoop=1;jettySize=auto;html=1;" parent="1" source="EEYwtt-snNPS_JnEbcf8-3" target="EEYwtt-snNPS_JnEbcf8-14" edge="1">
          <mxGeometry relative="1" as="geometry" />
        </mxCell>
        <mxCell id="EEYwtt-snNPS_JnEbcf8-3" value="Preprocessing &amp;amp; Example Extraction" style="rounded=0;whiteSpace=wrap;html=1;fillColor=#dae8fc;strokeColor=#6c8ebf;" parent="1" vertex="1">
          <mxGeometry x="460" y="190" width="195" height="40" as="geometry" />
        </mxCell>
        <mxCell id="EEYwtt-snNPS_JnEbcf8-21" style="rounded=0;orthogonalLoop=1;jettySize=auto;html=1;entryX=0;entryY=0.5;entryDx=0;entryDy=0;" parent="1" source="EEYwtt-snNPS_JnEbcf8-6" target="EEYwtt-snNPS_JnEbcf8-18" edge="1">
          <mxGeometry relative="1" as="geometry" />
        </mxCell>
        <mxCell id="EEYwtt-snNPS_JnEbcf8-6" value="GPT-2 (Fine-tuned)" style="rounded=0;whiteSpace=wrap;html=1;fillColor=#f8cecc;strokeColor=#b85450;" parent="1" vertex="1">
          <mxGeometry x="-20" y="310" width="130" height="30" as="geometry" />
        </mxCell>
        <mxCell id="EEYwtt-snNPS_JnEbcf8-22" style="rounded=0;orthogonalLoop=1;jettySize=auto;html=1;" parent="1" source="EEYwtt-snNPS_JnEbcf8-7" target="EEYwtt-snNPS_JnEbcf8-18" edge="1">
          <mxGeometry relative="1" as="geometry" />
        </mxCell>
        <mxCell id="EEYwtt-snNPS_JnEbcf8-7" value="CTGAN (Tabular GAN)" style="rounded=0;whiteSpace=wrap;html=1;fillColor=#f8cecc;strokeColor=#b85450;" parent="1" vertex="1">
          <mxGeometry x="130" y="310" width="130" height="30" as="geometry" />
        </mxCell>
        <mxCell id="EEYwtt-snNPS_JnEbcf8-23" style="rounded=0;orthogonalLoop=1;jettySize=auto;html=1;" parent="1" source="EEYwtt-snNPS_JnEbcf8-8" target="EEYwtt-snNPS_JnEbcf8-18" edge="1">
          <mxGeometry relative="1" as="geometry" />
        </mxCell>
        <mxCell id="EEYwtt-snNPS_JnEbcf8-8" value="LSTM (Seq-to-Seq)" style="rounded=0;whiteSpace=wrap;html=1;fillColor=#f8cecc;strokeColor=#b85450;" parent="1" vertex="1">
          <mxGeometry x="280" y="310" width="130" height="30" as="geometry" />
        </mxCell>
        <mxCell id="EEYwtt-snNPS_JnEbcf8-10" style="rounded=0;orthogonalLoop=1;jettySize=auto;html=1;entryX=0.554;entryY=0;entryDx=0;entryDy=0;entryPerimeter=0;" parent="1" source="EEYwtt-snNPS_JnEbcf8-2" target="EEYwtt-snNPS_JnEbcf8-7" edge="1">
          <mxGeometry relative="1" as="geometry" />
        </mxCell>
        <mxCell id="EEYwtt-snNPS_JnEbcf8-24" style="rounded=0;orthogonalLoop=1;jettySize=auto;html=1;" parent="1" source="EEYwtt-snNPS_JnEbcf8-12" target="EEYwtt-snNPS_JnEbcf8-18" edge="1">
          <mxGeometry relative="1" as="geometry" />
        </mxCell>
        <mxCell id="EEYwtt-snNPS_JnEbcf8-12" value="GPT-3.5-Turbo (Few-shot)" style="rounded=0;whiteSpace=wrap;html=1;fillColor=#f8cecc;strokeColor=#b85450;" parent="1" vertex="1">
          <mxGeometry x="441" y="310" width="130" height="30" as="geometry" />
        </mxCell>
        <mxCell id="EEYwtt-snNPS_JnEbcf8-25" style="rounded=0;orthogonalLoop=1;jettySize=auto;html=1;entryX=0.75;entryY=0;entryDx=0;entryDy=0;" parent="1" source="EEYwtt-snNPS_JnEbcf8-13" target="EEYwtt-snNPS_JnEbcf8-18" edge="1">
          <mxGeometry relative="1" as="geometry" />
        </mxCell>
        <mxCell id="EEYwtt-snNPS_JnEbcf8-13" value="GPT-4.1-Mini (Few-shot)" style="rounded=0;whiteSpace=wrap;html=1;fillColor=#f8cecc;strokeColor=#b85450;" parent="1" vertex="1">
          <mxGeometry x="590" y="310" width="130" height="30" as="geometry" />
        </mxCell>
        <mxCell id="EEYwtt-snNPS_JnEbcf8-26" style="rounded=0;orthogonalLoop=1;jettySize=auto;html=1;entryX=1;entryY=0.5;entryDx=0;entryDy=0;" parent="1" source="EEYwtt-snNPS_JnEbcf8-14" target="EEYwtt-snNPS_JnEbcf8-18" edge="1">
          <mxGeometry relative="1" as="geometry" />
        </mxCell>
        <mxCell id="EEYwtt-snNPS_JnEbcf8-14" value="GPT-o4-Mini (Few-shot)" style="rounded=0;whiteSpace=wrap;html=1;fillColor=#f8cecc;strokeColor=#b85450;" parent="1" vertex="1">
          <mxGeometry x="740" y="310" width="130" height="30" as="geometry" />
        </mxCell>
        <mxCell id="EEYwtt-snNPS_JnEbcf8-20" style="edgeStyle=orthogonalEdgeStyle;rounded=0;orthogonalLoop=1;jettySize=auto;html=1;entryX=0.5;entryY=0;entryDx=0;entryDy=0;" parent="1" source="EEYwtt-snNPS_JnEbcf8-18" target="EEYwtt-snNPS_JnEbcf8-19" edge="1">
          <mxGeometry relative="1" as="geometry" />
        </mxCell>
        <mxCell id="EEYwtt-snNPS_JnEbcf8-18" value="Generated Synthetic Logs" style="rounded=1;whiteSpace=wrap;html=1;fillColor=light-dark(#6D8764,#5E6758);strokeColor=#3A5431;fontColor=#ffffff;" parent="1" vertex="1">
          <mxGeometry x="348" y="420" width="155" height="40" as="geometry" />
        </mxCell>
        <mxCell id="EEYwtt-snNPS_JnEbcf8-19" value="Evaluation (Fidelity, Utility, Privacy)" style="rounded=1;whiteSpace=wrap;html=1;fillColor=#dae8fc;strokeColor=#6c8ebf;" parent="1" vertex="1">
          <mxGeometry x="300" y="500" width="250" height="40" as="geometry" />
        </mxCell>
      </root>
    </mxGraphModel>
  </diagram>
</mxfile>
